PathFileType	4	(X/Y/Z)	E:\Qualisys_Data\Carbon_Farble_Plate\Data\Amateur_Runner\S1\T2\S1T2V22_c3d.trc
DataRate	CameraRate	NumFrames	NumMarkers	Units	OrigDataRate	OrigDataStartFrame	OrigNumFrames
200.000000	200.000000	5	39	mm	200.000000	38	304
Frame#	Time	LSHO			RSHO			LICST			RICST			LASIS			LHEEL			RASIS			LTROC			RTROC			SACR			LTH1			LSK4			LTH2			LTH3			RHM5			LSK2			LTH4			RTH1			LTOE			RTH2			RTH3			RTH4			LLEP			RLEP			LSK1			LSK3			RSK1			LHM5			RSK2			LFT1			RSK3			RSK4			LLME			RLME			RTOE			RHEEL			RFT1			RFT2			LFT2			
		X1	Y1	Z1	X2	Y2	Z2	X3	Y3	Z3	X4	Y4	Z4	X5	Y5	Z5	X6	Y6	Z6	X7	Y7	Z7	X8	Y8	Z8	X9	Y9	Z9	X10	Y10	Z10	X11	Y11	Z11	X12	Y12	Z12	X13	Y13	Z13	X14	Y14	Z14	X15	Y15	Z15	X16	Y16	Z16	X17	Y17	Z17	X18	Y18	Z18	X19	Y19	Z19	X20	Y20	Z20	X21	Y21	Z21	X22	Y22	Z22	X23	Y23	Z23	X24	Y24	Z24	X25	Y25	Z25	X26	Y26	Z26	X27	Y27	Z27	X28	Y28	Z28	X29	Y29	Z29	X30	Y30	Z30	X31	Y31	Z31	X32	Y32	Z32	X33	Y33	Z33	X34	Y34	Z34	X35	Y35	Z35	X36	Y36	Z36	X37	Y37	Z37	X38	Y38	Z38	X39	Y39	Z39	

39	0.19	-2603.39013671875	1462.970581054688	-535.121337890625	-2645.8271484375	1428.153076171875	-203.8770294189453	-2679.891845703125	979.97705078125	-522.6136474609375	-2684.293212890625	1022.985595703125	-224.1295318603516	-2633.93994140625	946.869140625	-493.6925048828125	-2910.328369140625	411.4595642089844	-425.8416748046875	-2646.91259765625	976.3016357421876	-225.0625152587891	-2729.0556640625	855.4228515625	-532.6484985351562	-2749.698974609375	882.7122192382812	-195.2079772949219	-2801.31591796875	1014.290466308594	-373.612548828125	-2541.89697265625	776.6468505859375	-513.4241333007812	-2764.967041015625	469.3966064453125	-466.1513671875	-2607.32763671875	730.46728515625	-545.5958862304688	-2486.60107421875	687.9528198242188	-506.708740234375	-2698.67529296875	66.74512481689453	-261.0050048828125	-2672.96044921875	497.60107421875	-506.0130920410156	-2556.87158203125	644.2046508789062	-531.1716918945312	-2600.468505859375	760.4636840820312	-211.2304229736328	-2804.337890625	181.3319396972656	-443.0656433105469	-2677.57373046875	747.4970703125	-190.8427886962891	-2587.7998046875	660.48388671875	-224.188232421875	-2666.963623046875	649.90283203125	-211.9985198974609	-2472.049072265625	529.2285766601562	-497.3812255859375	-2614.144775390625	486.9788208007812	-259.5530395507812	-2647.220947265625	417.52587890625	-493.8911743164062	-2745.7041015625	392.6527709960938	-487.848876953125	-2683.474853515625	311.0871276855469	-257.2992858886719	-2862.191650390625	230.1261291503906	-507.0908813476562	-2756.2412109375	346.8780822753906	-259.0529174804688	-2932.542724609375	388.8703308105469	-402.0908203125	-2724.975830078125	222.3860778808594	-275.64306640625	-2796.874755859375	258.7291870117188	-287.5988159179688	-2863.084228515625	379.3323669433594	-480.5729064941406	-2813.6650390625	128.3167572021484	-278.4281921386719	-2638.683349609375	72.26103210449219	-343.0375366210938	-2880.65185546875	104.2978286743164	-318.9178771972656	-2883.824462890625	73.89005279541016	-346.8699340820312	-2889.595458984375	80.7518081665039	-291.1894226074219	-2936.4912109375	394.9459838867188	-455.4465942382812
40	0.195	-2585.918212890625	1466.027099609375	-536.8713989257812	-2624.6806640625	1430.674194335938	-205.1387176513672	-2661.44775390625	983.2203369140624	-522.7271728515625	-2663.714111328125	1024.260986328125	-223.3426361083984	-2615.154052734375	949.1889038085938	-494.4968566894531	-2879.19873046875	403.5092163085938	-426.3937683105469	-2623.091552734375	976.982421875	-228.0951385498047	-2709.255126953125	858.6303100585938	-532.6685791015625	-2730.675537109375	883.80419921875	-195.7532501220703	-2781.558837890625	1016.368408203125	-372.4924011230469	-2521.080322265625	783.6038208007812	-512.6989135742188	-2734.688232421875	467.0371704101562	-466.3442077636719	-2585.038330078125	736.0950927734375	-545.6193237304688	-2462.96923828125	696.9129028320312	-506.002685546875	-2698.598876953125	66.84529876708984	-261.1273193359375	-2643.879150390625	498.4972534179688	-506.1636962890625	-2532.10595703125	651.021484375	-530.4947509765625	-2585.270263671875	758.9266357421875	-211.8515777587891	-2761.55712890625	177.802490234375	-444.1531677246094	-2662.3681640625	747.8041381835938	-191.0816802978516	-2577.3095703125	657.951416015625	-225.3696594238281	-2655.33203125	650.1029663085938	-212.5934295654297	-2444.041015625	537.9779052734375	-496.8969421386719	-2604.40234375	486.7410278320312	-260.5409240722656	-2614.921142578125	420.0765686035156	-493.7249145507812	-2712.2431640625	391.1244201660156	-487.6871337890625	-2678.477294921875	310.4908752441406	-258.9078674316406	-2821.769287109375	224.3972930908203	-507.8590393066406	-2750.669921875	348.1572875976562	-259.1561889648438	-2899.647705078125	380.0400085449219	-402.7606811523438	-2722.828125	222.1971588134766	-277.0762634277344	-2794.360107421875	261.3116760253906	-287.9574279785156	-2829.599365234375	373.0938415527344	-481.1636047363281	-2811.959716796875	130.4368286132812	-278.5145263671875	-2638.1953125	71.74018096923828	-342.7341918945312	-2894.62060546875	110.4579849243164	-320.2149353027344	-2883.970458984375	75.64942169189453	-346.7271423339844	-2889.508544921875	82.16954803466797	-291.1925354003906	-2904.37158203125	385.889404296875	-456.8168029785156
41	0.2	-2569.85009765625	1468.575073242188	-537.9395751953125	-2602.78466796875	1434.023071289062	-205.3471374511719	-2642.82666015625	986.3878784179688	-523.6630859375	-2642.843017578125	1024.173706054688	-222.4030456542969	-2594.939208984375	952.6860961914062	-493.2604675292969	-2846.618896484375	394.586669921875	-427.6325988769531	-2605.329833984375	976.9686889648438	-225.967529296875	-2689.365966796875	862.2680053710938	-533.2429809570312	-2710.962158203125	885.9163208007812	-195.3506622314453	-2761.055419921875	1018.862854003906	-371.3838806152344	-2499.697509765625	790.6013793945312	-512.0748901367188	-2705.31689453125	465.3569946289062	-467.17529296875	-2562.561279296875	741.2890014648438	-545.027099609375	-2439.757080078125	705.6651000976562	-505.5418090820312	-2697.816162109375	66.91669464111328	-261.1777648925781	-2614.6298828125	499.5958557128906	-505.9029235839844	-2507.4443359375	658.2129516601562	-530.146484375	-2570.797119140625	757.8934326171875	-213.3759613037109	-2715.316162109375	175.4255218505859	-445.6554870605469	-2647.06591796875	748.947021484375	-192.573974609375	-2563.505615234375	657.3094482421875	-226.2708435058594	-2642.72509765625	651.2145385742188	-213.4380493164062	-2416.29736328125	546.3944702148438	-495.8516540527344	-2595.294189453125	486.3630676269531	-262.0604248046875	-2582.42822265625	421.3721923828125	-493.6039733886719	-2679.086669921875	389.8357849121094	-487.9144592285156	-2673.169189453125	310.1047668457031	-259.5955505371094	-2780.817138671875	218.61181640625	-508.8086242675781	-2745.46923828125	349.3834228515625	-258.6620178222656	-2865.298095703125	369.8217468261719	-403.8937683105469	-2719.0234375	223.0704956054688	-277.1626586914062	-2789.9931640625	263.3858032226562	-287.1229858398438	-2795.85986328125	366.5718078613281	-481.9158325195312	-2811.05859375	132.1866607666016	-278.8086242675781	-2637.6953125	71.3155288696289	-343.2234497070312	-2895.705810546875	112.5729522705078	-320.3591003417969	-2883.263671875	77.0346908569336	-346.7428588867188	-2888.953857421875	83.19757080078125	-290.6258239746094	-2870.794189453125	375.2681274414062	-457.3749694824219
42	0.205	-2553.300048828125	1472.115112304688	-539.6630859375	-2581.251953125	1437.361450195312	-206.452880859375	-2622.239013671875	990.7496337890624	-522.5214233398438	-2622.102294921875	1025.880493164062	-222.3321533203125	-2574.824951171875	956.2239379882812	-493.7897644042969	-2814.809814453125	386.013916015625	-428.7639770507812	-2583.91796875	977.8248291015624	-227.1004028320312	-2668.737060546875	866.4723510742188	-533.9635009765625	-2692.681884765625	887.5829467773438	-196.8781280517578	-2740.906494140625	1021.551147460938	-370.8043518066406	-2478.78271484375	797.6083374023438	-511.3806457519531	-2673.725341796875	460.1618041992188	-467.5550231933594	-2539.835205078125	747.3521118164062	-546.1430053710938	-2417.2021484375	714.1986694335938	-504.8804626464844	-2697.91162109375	67.25775909423828	-261.8654479980469	-2585.652099609375	500.3021240234375	-505.4138793945312	-2483.379638671875	664.5792846679688	-529.617431640625	-2555.963134765625	757.9834594726562	-215.6511383056641	-2676.30810546875	172.3822174072266	-446.4313049316406	-2631.499755859375	750.5482788085938	-193.0283355712891	-2549.781982421875	657.6079711914062	-228.1303100585938	-2629.5576171875	652.4170532226562	-214.4732360839844	-2389.691162109375	555.8150024414062	-494.8757019042969	-2587.1923828125	486.3082580566406	-263.7383422851562	-2550.492919921875	423.031982421875	-493.540283203125	-2645.29443359375	387.7306518554688	-488.1138610839844	-2669.228759765625	310.93017578125	-260.3305358886719	-2740.072509765625	212.7428436279297	-510.1886901855469	-2740.501220703125	350.3871459960938	-258.5769958496094	-2836.11328125	360.4464111328125	-404.9740600585938	-2716.349853515625	224.1685791015625	-278.1123962402344	-2785.3095703125	264.7491149902344	-287.1532287597656	-2761.2509765625	360.3704833984375	-482.0685119628906	-2809.448486328125	134.1856994628906	-278.4100646972656	-2637.31005859375	70.75022888183594	-343.0424499511719	-2895.23779296875	114.430778503418	-320.0753479003906	-2882.606201171875	78.6414566040039	-346.3729553222656	-2889.307373046875	84.79092407226562	-290.9113159179688	-2837.082275390625	364.8057861328125	-457.8554077148438
43	0.21	-2536.955078125	1475.986328125	-540.7741088867188	-2558.69287109375	1441.274291992188	-207.5148162841797	-2602.271728515625	995.1653442382812	-522.5249633789062	-2599.411865234375	1026.48291015625	-222.2846221923828	-2554.8203125	960.324462890625	-493.6276550292969	-2780.864013671875	375.9899597167969	-429.3151550292969	-2563.56591796875	978.4716796875	-228.0685729980469	-2648.17431640625	870.8169555664062	-534.8825073242188	-2672.582275390625	889.9920654296875	-196.9396820068359	-2720.3515625	1024.381713867188	-370.2115783691406	-2457.39404296875	804.8876342773438	-510.8534545898438	-2643.663330078125	456.868408203125	-467.8366394042969	-2517.882568359375	753.0973510742188	-544.7047729492188	-2394.243408203125	722.197265625	-504.0245361328125	-2697.71826171875	67.18260192871094	-262.2052917480469	-2557.01708984375	500.8680725097656	-505.01708984375	-2459.342041015625	671.5933227539062	-528.740234375	-2540.159423828125	757.8896484375	-218.0871124267578	-2633.200439453125	170.0830688476562	-447.2661743164062	-2615.68798828125	751.9067993164062	-194.2855987548828	-2536.783935546875	656.7130737304688	-230.8055725097656	-2616.58056640625	654.1201171875	-215.5153198242188	-2363.222900390625	563.46240234375	-494.5179443359375	-2580.228759765625	485.4898681640625	-265.206298828125	-2519.668701171875	426.6651916503906	-493.6087951660156	-2612.040771484375	385.7781677246094	-488.3904418945312	-2665.204345703125	312.177978515625	-261.9394836425781	-2698.74560546875	207.2208251953125	-510.7879943847656	-2735.863037109375	352.5558776855469	-259.5084533691406	-2798.676025390625	349.342041015625	-406.4798583984375	-2713.656982421875	225.8634796142578	-278.5141296386719	-2782.926025390625	267.4428100585938	-287.2318725585938	-2727.58642578125	354.0555114746094	-483.5379943847656	-2807.710693359375	137.2631683349609	-278.8085021972656	-2637.135498046875	70.72566986083984	-343.3657531738281	-2894.66552734375	116.0724105834961	-320.0313720703125	-2882.30859375	81.2608871459961	-347.0313110351562	-2887.470947265625	86.56903076171875	-290.9930419921875	-2803.34033203125	354.0325622558594	-458.9448852539062
